<svg id="logosandtypes_com" data-name="logosandtypes com" xmlns="http://www.w3.org/2000/svg" xmlns:xlink="http://www.w3.org/1999/xlink" viewBox="0 0 150 150"><defs><style>.cls-1{fill:none;}.cls-2{fill:url(#radial-gradient);}.cls-3{fill:#f20016;}</style><radialGradient id="radial-gradient" cx="85.08" cy="67.08" r="69.3" gradientTransform="translate(4.26 -13.28) rotate(3.12) scale(1 1.13)" gradientUnits="userSpaceOnUse"><stop offset="0" stop-color="#fff"/><stop offset="0.17" stop-color="#fbfbfb"/><stop offset="0.32" stop-color="#f0f0f0"/><stop offset="0.47" stop-color="#ddd"/><stop offset="0.61" stop-color="#c3c3c3"/><stop offset="0.72" stop-color="#ababab"/></radialGradient></defs><path class="cls-1" d="M0,.2H150v150H0Z" transform="translate(0 -0.2)"/><path class="cls-2" d="M139.64,74.56A65,65,0,0,1,57,137.17c1.47.25,26.06,4.42,37.85-19.56C108.84,89.11,84,71,76.48,65.2S54,49.75,54,32.12C54,21.48,65.35,14,72,9.76c1.36-.19,2.16-.23,2.16-.23h.41A65,65,0,0,1,139.64,74.56Z" transform="translate(0 -0.2)"/><path class="cls-3" d="M97.26,117.61c-11.79,24-38.8,19.81-40.27,19.56A65.11,65.11,0,0,1,11.28,89.4c5,4.76,13.87,11.3,28.19,15.88,25.1,8,19.61,22.66,18,29.35C76.75,104.89,45.15,90.6,31,82,12.91,71.07,11.39,54.94,19,40.81A65.51,65.51,0,0,1,37.32,21.28c-2.93,6.59-1.64,15.65-1.64,15.65C44.82,15.31,65.35,10.7,72,9.76,65.35,14,56.92,21.49,56.92,32.12c0,17.63,14,25.11,21.5,30.91S111.26,89.11,97.26,117.61Z" transform="translate(0 -0.2)"/></svg>