<svg version="1.2" xmlns="http://www.w3.org/2000/svg" viewBox="0 0 129 131" width="129" height="131"><defs><linearGradient id="P" gradientUnits="userSpaceOnUse"/><radialGradient id="g1" cx="0" cy="0" r="1" href="#P" gradientTransform="matrix(69.197,3.772,-3.772,69.197,74.088,57.839)"><stop stop-color="#fff"/><stop offset=".17" stop-color="#fbfbfb"/><stop offset=".32" stop-color="#f0f0f0"/><stop offset=".47" stop-color="#ddd"/><stop offset=".61" stop-color="#c3c3c3"/><stop offset=".72" stop-color="#ababab"/></radialGradient></defs><style>.a{fill:none}.b{fill:url(#g1)}.c{fill:#f20016}</style><path class="a" d="m-11-9h150v150h-150z"/><path class="b" d="m128.6 65.4c0 10-2.3 19.9-6.7 28.9-4.5 9-11 16.9-19 22.9-8 6.1-17.3 10.2-27.2 12.1-9.9 1.8-20 1.4-29.7-1.3 1.5 0.2 26.1 4.4 37.9-19.6 13.9-28.5-10.9-46.6-18.4-52.4-7.5-5.8-22.5-15.5-22.5-33.1 0-10.6 11.3-18.1 18-22.3 1.4-0.2 2.2-0.3 2.2-0.3h0.4c8.5 0 17 1.7 24.9 5 7.9 3.2 15 8 21.1 14.1 6 6 10.8 13.2 14.1 21.1 3.3 7.9 4.9 16.3 4.9 24.9z"/><path class="c" d="m86.3 108.4c-11.8 24-38.8 19.8-40.3 19.6-5.6-1.6-10.9-3.9-15.9-6.9-4.9-3-9.5-6.6-13.5-10.8-4-4.2-7.4-8.9-10.2-13.9-2.7-5.1-4.8-10.6-6.1-16.2 5 4.8 13.8 11.3 28.2 15.9 25.1 8 19.6 22.6 18 29.3 19.3-29.7-12.4-44-26.5-52.6-18.1-10.9-19.6-27.1-12-41.2q1.8-2.9 3.8-5.6 2-2.6 4.4-5.1 2.3-2.5 4.8-4.7 2.6-2.2 5.3-4.1c-2.9 6.6-1.6 15.6-1.6 15.6 9.1-21.6 29.6-26.2 36.3-27.1-6.7 4.2-15.1 11.7-15.1 22.3 0 17.6 14 25.1 21.5 30.9 7.5 5.8 32.9 26.1 18.9 54.6z"/></svg>